# xmcd
#
# Track frame offsets: 
#        150
#        20417
#        31496
#        43997
#        61736
#        76595
#        91513
#        97810
#        114570
#        131011
#        148810
#        165461
#        183792
#
# Disc length: 2715 seconds
#
# Revision: 0
# Processed by: cddbd v1.5.2PL0 Copyright (c) Steve Scherf et al.
# Submitted via: ExactAudioCopyFreeDBPlugin 1.0
#
DISCID=980a990d
DTITLE=The Mustangs - Shaman and the Monkey
DYEAR=2011
DGENRE=Blues
TTITLE0=The Line
TTITLE1=Didn't I Say
TTITLE2=Cracking Up
TTITLE3=Monkey On Your Back
TTITLE4=Shut It Down
TTITLE5=Highwire
TTITLE6=Reynolds Jam
TTITLE7=The Chancer
TTITLE8=Gotta Be Good
TTITLE9=Any Road Will Do
TTITLE10=Find Your Love
TTITLE11=Second Chance
TTITLE12=Too Much Is Never Enough
EXTD=
EXTT0=
EXTT1=
EXTT2=
EXTT3=
EXTT4=
EXTT5=
EXTT6=
EXTT7=
EXTT8=
EXTT9=
EXTT10=
EXTT11=
EXTT12=
PLAYORDER=
